<svg xmlns="http://www.w3.org/2000/svg" viewBox="0 0 31 31"><path d="M1 1h7v7h-7zM9 1h1v1h1v1h1v1h-1v1h1v-1h1v3h-1v-1h-2v-1h-1v-1h1v-1h-1zM13 1h1v2h-1zM15 1h1v2h-1zM18 1h1v2h-1zM20 1h1v1h-1zM23 1h7v7h-7zM2 2v5h5v-5zM24 2v5h5v-5zM3 3h3v3h-3zM14 3h1v2h-1zM19 3h2v1h-1v1h1v-1h1v2h-1v1h-1v-1h-1v1h-1v1h1v2h2v1h-1v1h-1v-1h-1v-2h-1v-3h1v-2h1zM25 3h3v3h-3zM16 5h1v1h-1zM9 7h1v1h1v1h-2zM11 7h1v1h-1zM13 7h1v1h-1zM15 7h1v2h-1zM19 7h1v1h-1zM21 7h1v1h-1zM12 8h1v1h-1zM1 9h1v1h1v-1h2v1h-1v1h-1v3h-2v-2h1v-1h-1zM6 9h3v1h1v1h-2v-1h-2zM13 9h2v3h-1v1h-1v-1h-1v-1h2v-1h-1zM23 9h1v2h-1zM26 9h1v1h1v-1h2v2h-1v1h1v1h-2v-2h-3v-1h1zM5 10h1v1h-1zM7 11h1v1h-1zM17 11h1v1h-1zM21 11h1v1h-1zM24 11h1v1h1v1h-3v1h2v1h1v3h-1v-2h-1v1h-4v-2h-2v-1h-1v1h-2v-2h1v-1h1v1h3v-1h1v1h1v-1h2zM4 12h1v1h-1zM6 12h1v1h1v-1h4v1h-2v1h2v1h1v2h1v2h-2v-3h-1v1h-1v-1h-1v-1h-1v-1h-1v1h-2v-2h1zM26 13h2v2h-2zM29 14h1v2h-2v-1h1zM4 15h1v3h-1v-1h-1v-1h1zM7 15h1v1h-1zM14 15h1v1h-1zM22 15v1h1v-1zM15 16h2v1h-1v1h1v-1h1v2h-1v1h1v-1h1v5h-1v1h2v1h-3v1h-1v-2h-3v-1h-1v-2h1v1h1v1h1v-1h1v1h1v-1h1v-1h-5v-1h1v-2h1zM2 17h1v1h-1zM6 17h2v1h-2zM28 17h2v1h-2zM8 18h3v1h-1v1h1v-1h1v2h-4v-1h1v-1h-1zM19 18h1v1h-1zM22 18h1v2h1v1h2v1h1v1h-1v4h-1v-1h-3v1h-2v-1h1v-1h-1v-5h1v1h1zM24 18h1v1h1v1h-2zM27 18h1v1h-1zM1 19h1v1h-1zM5 19h3v1h-1v1h-1v-1h-1zM3 20h2v1h1v1h-4v-1h1zM26 20h3v1h-1v1h-1v-1h-1zM7 21h1v1h-1zM9 22h2v2h-1v1h-1zM22 22v3h3v-3zM28 22h2v1h-1v1h-1zM1 23h7v7h-7zM23 23h1v1h-1zM2 24v5h5v-5zM3 25h3v3h-3zM10 25h1v2h-1v1h-1v-2h1zM27 25h1v1h-1zM12 26h2v1h-1v3h-2v-1h-1v-1h2zM29 26h1v2h-1zM14 27h2v1h-1v1h-1zM17 27h3v1h2v2h-1v-1h-2v-1h-1v2h-1v-1h-1v-1h1zM22 27h1v1h-1zM24 27h1v1h-1zM26 28h1v2h-1zM28 28h1v2h-1zM9 29h1v1h-1zM24 29h1v1h-1z"/></svg>