<svg xmlns="http://www.w3.org/2000/svg" viewBox="0 0 31 31"><path d="M1 1h7v7h-7zM10 1h1v1h1v1h-2zM13 1h2v1h1v-1h1v3h-1v-1h-1v1h-1v-2h-1zM20 1h1v1h-1zM23 1h7v7h-7zM2 2v5h5v-5zM18 2h2v2h2v1h-1v1h-2v1h-1v-2h-1v-1h2v-1h-1zM21 2h1v1h-1zM24 2v5h5v-5zM3 3h3v3h-3zM9 3h1v2h1v-1h1v4h-1v-1h-1v2h-1zM12 3h1v1h-1zM25 3h3v3h-3zM15 4h1v1h-1zM16 6h1v1h-1zM21 6h1v2h-1zM13 7h1v1h-1zM15 7h1v1h1v-1h1v2h-3zM19 7h1v3h-2v-1h1zM1 9h1v2h-1zM3 9h5v1h-1v1h-1v-1h-1v1h-1v1h2v1h2v1h-1v1h-1v-1h-1v-1h-1v1h1v2h-1v-1h-1v-1h-1v-3h1zM10 9h2v1h-2zM21 9h1v1h-1zM23 9h5v1h2v1h-2v1h-1v-1h-1v1h1v1h1v1h-1v2h-1v1h-1v-1h-1v-1h-1v-1h3v-1h-1v-1h-1v1h-1v1h-1v-1h-1v-1h1v-1h1zM8 10h1v1h-1zM14 10h2v1h1v1h1v1h3v2h-1v-1h-5v-1h1v-1h-1v1h-1v1h-1v-1h-1v-2h2zM20 10h1v1h-1zM7 11h1v1h-1zM19 11h1v1h-1zM10 12h1v1h-1zM9 13h1v1h-1zM11 13h1v1h-1zM10 14h1v1h-1zM28 14h2v1h-2zM7 15h1v1h-1zM9 15h1v1h-1zM12 15h2v1h-1v1h1v1h2v1h2v1h-1v1h2v-2h1v3h1v-3h2v1h2v1h1v2h1v2h1v1h2v1h-1v2h-1v-2h-1v-1h-4v1h-1v-1h-1v-2h-1v-1h-1v1h-1v-2h-3v-1h1v-1h-1v1h-1v-1h-1v-1h-1v-2h-2v-1h2zM16 15h3v1h-1v1h1v-1h3v1h1v1h-2v-1h-1v1h-1v1h-1v-1h-2v-1h1v-1h-1zM22 15h1v1h-1zM1 16h3v1h-2v5h-1zM6 16h1v1h1v1h-2v2h-1v1h-1v-1h-1v-1h1v-1h1v-1h1zM8 16h1v1h-1zM15 16h1v1h-1zM9 17h1v1h-1zM24 17h1v1h2v-1h1v1h1v-1h1v2h-4v1h-1v-1h-2v-1h1zM8 18h1v2h1v1h2v-1h1v3h-1v-1h-1v2h1v3h-1v-1h-1v2h-1v-4h1v-1h-1v-2h-1v-1h-1v-1h1zM10 18h1v1h-1zM20 18h1v1h-1zM11 19h1v1h-1zM6 20h1v1h-1zM26 20h1v1h-1zM5 21h1v1h-1zM7 21h1v1h-1zM28 21h2v2h-3v-1h1zM22 22v3h3v-3zM1 23h7v7h-7zM16 23h1v1h-1zM23 23h1v1h-1zM2 24v5h5v-5zM13 24h1v2h2v1h2v1h-3v-1h-1v1h-1v1h-1v-2h1zM15 24h1v1h-1zM17 24h1v1h-1zM19 24h1v2h-2v-1h1zM28 24h1v1h-1zM3 25h3v3h-3zM20 27h1v1h2v1h-3v1h-7v-1h1v-1h1v1h4v-1h1zM23 27h1v1h-1zM25 27h2v2h-1v-1h-1zM24 28h1v2h-2v-1h1zM9 29h3v1h-3zM27 29h1v1h-1z"/></svg>