<svg xmlns="http://www.w3.org/2000/svg" viewBox="0 0 31 31"><path d="M1 1h7v7h-7zM9 1h4v1h-2v1h1v1h1v-1h1v-1h1v-1h1v2h-1v2h-3v1h3v1h-1v1h-1v-1h-1v2h-1v1h-1v-1h-1v-2h1v1h1v-1h-1v-1h1v-2h-1v-1h-1zM20 1h1v1h-1zM23 1h7v7h-7zM2 2v5h5v-5zM18 2h2v1h1v-1h1v8h-1v1h-1v1h-2v-4h1v2h1v-2h1v-1h-1v1h-1v-1h-1v-3h1v-1h-1zM24 2v5h5v-5zM3 3h3v3h-3zM16 3h1v1h-1zM25 3h3v3h-3zM9 4h1v1h-1zM20 4v1h1v-1zM16 5h1v1h-1zM15 7h1v1h1v1h-2zM17 7h1v1h-1zM1 9h1v2h1v1h1v1h-1v1h-1v1h2v-2h2v1h1v1h-2v1h-2v1h-1v1h-1zM3 9h2v1h1v-1h3v1h-2v1h-3v-1h-1zM12 9h1v1h-1zM23 9h1v1h2v-1h1v1h1v-1h2v2h-1v1h1v1h-2v-2h-3v3h-1v-1h-2v-1h-1v-1h1v-1h1zM13 10h1v1h1v-1h1v3h-1v1h1v-1h4v1h1v-1h1v1h2v1h2v3h-1v-2h-1v1h-2v-1h1v-1h-1v1h-2v-1h-2v-1h-1v1h-1v1h-2v-2h-1zM7 11h2v4h-1v-1h-1v-1h1v-1h-1zM11 11h1v1h-1zM23 11v1h1v-1zM10 12h1v1h-1zM26 13h2v2h-2zM11 14h1v1h1v1h-1v1h-1v-1h-1v1h1v1h-1v2h-1v-1h-1v-1h-1v-1h2v-2h2zM29 14h1v2h-2v-1h1zM7 15h1v1h-1zM17 15h1v2h-1zM6 16h1v1h-1zM3 17h2v1h-2zM12 17h1v1h1v-1h3v1h3v2h2v1h2v-1h-1v-1h1v-1h1v1h1v1h-1v1h1v-1h3v1h-2v2h-1v4h-1v3h-1v-4h-1v4h-3v-1h1v-1h1v-1h-1v1h-1v1h-1v-1h-1v-1h2v-1h1v-2h-1v-2h1v-1h-2v1h-1v-2h1v-1h-2v1h-1v1h-1v-2h-1v1h-2zM28 17h2v1h-2zM2 18h1v1h-1zM5 18h2v1h-1v1h-1zM27 18h1v1h-1zM1 19h1v1h-1zM3 19h1v1h-1zM7 19h1v1h-1zM6 20h1v1h1v1h-2zM8 20h1v1h-1zM10 20h1v1h3v1h-1v1h-1v1h-1v-1h-1v2h-1v-3h1zM2 21h1v1h-1zM4 21h1v1h-1zM16 21h1v1h-1zM15 22h1v1h-1zM22 22v3h3v-3zM28 22h2v1h-1v1h-2v-1h1zM1 23h7v7h-7zM23 23h1v1h-1zM2 24v5h5v-5zM12 24h1v3h1v3h-5v-1h4v-1h-1v-2h-1v1h-1v1h-1v-2h1v-1h2zM14 24h3v1h3v1h-3v1h-1v1h-1v-1h-1v-1h2v-1h-2zM3 25h3v3h-3zM27 25h3v3h-1v-2h-2zM16 28h1v1h-1zM26 28h1v2h-1zM28 28h1v2h-1zM17 29h1v1h-1z"/></svg>