<svg xmlns="http://www.w3.org/2000/svg" viewBox="0 0 31 31"><path d="M1 1h7v7h-7zM10 1h2v1h1v-1h1v3h-1v-1h-2v1h-1v1h1v1h-1v2h1v1h-2v-6h1zM15 1h1v1h1v1h1v1h1v-1h-1v-1h2v2h2v1h-1v1h-2v1h-1v-2h-2v-1h-1zM20 1h1v1h-1zM23 1h7v7h-7zM2 2v5h5v-5zM21 2h1v1h-1zM24 2v5h5v-5zM3 3h3v3h-3zM25 3h3v3h-3zM12 5h3v1h2v1h-1v1h-1v-1h-1v-1h-2zM21 6h1v2h-1zM11 7h1v1h-1zM13 7h1v1h-1zM17 7h1v2h-2v-1h1zM19 7h1v3h-2v-1h1zM12 8h1v1h-1zM14 8h1v1h-1zM1 9h1v1h1v-1h5v1h-3v1h-4zM11 9h1v1h-1zM15 9h1v1h-1zM21 9h1v1h-1zM23 9h5v1h2v1h-2v1h-1v-1h-1v1h1v1h1v1h-1v2h-2v-2h1v-1h-1v-1h-1v-1h1v-1h-1v1h-1zM10 10h1v1h-1zM12 10h2v2h-1v-1h-1zM20 10h1v1h-1zM5 11h3v1h-1v1h1v1h-3v-1h1v-1h-1zM9 11h1v3h1v-1h1v-1h1v1h1v1h2v1h1v2h2v-1h1v1h3v1h-2v1h-1v-1h-1v1h-1v-1h-3v-1h1v-1h-1v1h-2v-3h-1v1h-1v1h-1v-1h-1v2h-1v-1h-1v-1h1v-1h1v-1h-1v-1h1zM11 11h1v1h-1zM16 11h2v1h-2zM19 11h1v1h-1zM22 11h1v1h1v1h-1v1h-1v-1h-1v-1h1zM1 12h1v1h-1zM4 12h1v1h-1zM15 12h1v1h-1zM2 13h1v1h-1zM16 13h5v2h-1v-1h-4zM24 13h1v1h-1zM23 14h1v1h-1zM28 14h2v1h-2zM1 15h1v1h-1zM3 15h3v1h1v1h-2v-1h-1v1h-1zM18 15h1v1h-1zM22 15h1v1h-1zM23 16h2v1h-2zM2 17h1v1h2v1h-3v3h-1v-4h1zM7 17h1v1h-1zM10 17h2v2h2v2h-1v-1h-1v1h-1v-1h-1v-1h1v-1h-1zM27 17h1v1h1v-1h1v2h-5v-1h2zM9 18h1v1h-1zM23 18h1v1h-1zM5 19h4v2h1v2h-1v-1h-5v-1h2v-1h-1zM16 19h1v1h-1zM19 19h1v1h1v-1h1v1h1v1h1v-2h1v2h1v2h1v2h1v1h2v1h-1v2h-1v-2h-1v-1h-4v1h-2v-3h-1v-1h-1v1h-1v-2h-2v-1h3zM3 20h1v1h-1zM7 20v1h1v-1zM15 20h1v1h-1zM26 20h1v1h-1zM12 21h1v2h-1zM20 21v1h1v-1zM28 21h2v2h-3v-1h1zM14 22h2v1h1v1h-2v1h-1v-1h-1v-1h1zM22 22v3h3v-3zM1 23h7v7h-7zM10 23h2v1h-2zM23 23h1v1h-1zM2 24v5h5v-5zM9 24h1v1h2v1h3v1h-1v1h-1v-1h-1v1h-3zM12 24h1v1h-1zM17 24h1v1h-1zM19 24h1v2h-2v-1h1zM3 25h3v3h-3zM15 25h1v1h-1zM16 27h2v1h-2zM20 27h1v1h1v1h-2v1h-5v-1h-1v-1h2v1h3v-1h1zM23 27h4v2h-1v-1h-1v2h-1v-2h-1zM9 29h2v1h-2zM12 29h2v1h-2zM27 29h1v1h-1z"/></svg>